<svg width="17" height="17" viewBox="0 0 17 17" fill="none" xmlns="http://www.w3.org/2000/svg">
<path d="M15.0133 0.259463C15.38 -0.107287 16.013 -0.0820861 16.4101 0.315077L16.6849 0.58987C17.0821 0.987033 17.1073 1.61999 16.7405 1.98674L1.98674 16.7405C1.61999 17.1073 0.987039 17.0821 0.589876 16.6849L0.315083 16.4101C-0.0820798 16.013 -0.107279 15.38 0.25947 15.0133L8.5 6.77273L15.0133 0.259463Z" fill="white"/>
<path d="M0.259461 1.98674C-0.107288 1.61999 -0.0820876 0.987031 0.315075 0.589869L0.589868 0.315075C0.987031 -0.0820876 1.61999 -0.107288 1.98673 0.259462L8.5 6.77273L16.7405 15.0133C17.1073 15.38 17.0821 16.013 16.6849 16.4101L16.4101 16.6849C16.013 17.0821 15.38 17.1073 15.0133 16.7405L0.259461 1.98674Z" fill="white"/>
</svg>
