<svg width="37" height="115" viewBox="0 0 37 115" fill="none" xmlns="http://www.w3.org/2000/svg">
<g id="Dosing">
<rect id="Rectangle" width="15" height="96" rx="7.5" transform="translate(12)" fill="#DBDBDB"/>
<path id="Dosing_2" d="M0.867188 11V2.46875H3.38672C4.14063 2.46875 4.80859 2.63672 5.39062 2.97266C5.97656 3.30859 6.42969 3.78516 6.75 4.40234C7.07031 5.01953 7.23047 5.72656 7.23047 6.52344V6.95117C7.23047 7.75977 7.06836 8.4707 6.74414 9.08398C6.42383 9.69727 5.96484 10.1699 5.36719 10.502C4.77344 10.834 4.0918 11 3.32227 11H0.867188ZM2.34961 3.66406V9.81641H3.31641C4.09375 9.81641 4.68945 9.57422 5.10352 9.08984C5.52148 8.60156 5.73438 7.90234 5.74219 6.99219V6.51758C5.74219 5.5918 5.54102 4.88477 5.13867 4.39648C4.73633 3.9082 4.15234 3.66406 3.38672 3.66406H2.34961ZM8.30273 7.77148C8.30273 7.15039 8.42578 6.5918 8.67188 6.0957C8.91797 5.5957 9.26367 5.21289 9.70898 4.94727C10.1543 4.67773 10.666 4.54297 11.2441 4.54297C12.0996 4.54297 12.793 4.81836 13.3242 5.36914C13.8594 5.91992 14.1484 6.65039 14.1914 7.56055L14.1973 7.89453C14.1973 8.51953 14.0762 9.07812 13.834 9.57031C13.5957 10.0625 13.252 10.4434 12.8027 10.7129C12.3574 10.9824 11.8418 11.1172 11.2559 11.1172C10.3613 11.1172 9.64453 10.8203 9.10547 10.2266C8.57031 9.62891 8.30273 8.83398 8.30273 7.8418V7.77148ZM9.72656 7.89453C9.72656 8.54688 9.86133 9.05859 10.1309 9.42969C10.4004 9.79688 10.7754 9.98047 11.2559 9.98047C11.7363 9.98047 12.1094 9.79297 12.375 9.41797C12.6445 9.04297 12.7793 8.49414 12.7793 7.77148C12.7793 7.13086 12.6406 6.62305 12.3633 6.24805C12.0898 5.87305 11.7168 5.68555 11.2441 5.68555C10.7793 5.68555 10.4102 5.87109 10.1367 6.24219C9.86328 6.60938 9.72656 7.16016 9.72656 7.89453ZM18.9551 9.27734C18.9551 9.02344 18.8496 8.83008 18.6387 8.69727C18.4316 8.56445 18.0859 8.44727 17.6016 8.3457C17.1172 8.24414 16.7129 8.11523 16.3887 7.95898C15.6777 7.61523 15.3223 7.11719 15.3223 6.46484C15.3223 5.91797 15.5527 5.46094 16.0137 5.09375C16.4746 4.72656 17.0605 4.54297 17.7715 4.54297C18.5293 4.54297 19.1406 4.73047 19.6055 5.10547C20.0742 5.48047 20.3086 5.9668 20.3086 6.56445H18.8848C18.8848 6.29102 18.7832 6.06445 18.5801 5.88477C18.377 5.70117 18.1074 5.60938 17.7715 5.60938C17.459 5.60938 17.2031 5.68164 17.0039 5.82617C16.8086 5.9707 16.7109 6.16406 16.7109 6.40625C16.7109 6.625 16.8027 6.79492 16.9863 6.91602C17.1699 7.03711 17.541 7.16016 18.0996 7.28516C18.6582 7.40625 19.0957 7.55273 19.4121 7.72461C19.7324 7.89258 19.9688 8.0957 20.1211 8.33398C20.2773 8.57227 20.3555 8.86133 20.3555 9.20117C20.3555 9.77148 20.1191 10.2344 19.6465 10.5898C19.1738 10.9414 18.5547 11.1172 17.7891 11.1172C17.2695 11.1172 16.8066 11.0234 16.4004 10.8359C15.9941 10.6484 15.6777 10.3906 15.4512 10.0625C15.2246 9.73438 15.1113 9.38086 15.1113 9.00195H16.4941C16.5137 9.33789 16.6406 9.59766 16.875 9.78125C17.1094 9.96094 17.4199 10.0508 17.8066 10.0508C18.1816 10.0508 18.4668 9.98047 18.6621 9.83984C18.8574 9.69531 18.9551 9.50781 18.9551 9.27734ZM23.1152 11H21.6914V4.66016H23.1152V11ZM21.6035 3.01367C21.6035 2.79492 21.6719 2.61328 21.8086 2.46875C21.9492 2.32422 22.1484 2.25195 22.4062 2.25195C22.6641 2.25195 22.8633 2.32422 23.0039 2.46875C23.1445 2.61328 23.2148 2.79492 23.2148 3.01367C23.2148 3.22852 23.1445 3.4082 23.0039 3.55273C22.8633 3.69336 22.6641 3.76367 22.4062 3.76367C22.1484 3.76367 21.9492 3.69336 21.8086 3.55273C21.6719 3.4082 21.6035 3.22852 21.6035 3.01367ZM25.9922 4.66016L26.0332 5.39258C26.502 4.82617 27.1172 4.54297 27.8789 4.54297C29.1992 4.54297 29.8711 5.29883 29.8945 6.81055V11H28.4707V6.89258C28.4707 6.49023 28.3828 6.19336 28.207 6.00195C28.0352 5.80664 27.752 5.70898 27.3574 5.70898C26.7832 5.70898 26.3555 5.96875 26.0742 6.48828V11H24.6504V4.66016H25.9922ZM31.1016 7.7832C31.1016 6.79883 31.332 6.01367 31.793 5.42773C32.2578 4.83789 32.873 4.54297 33.6387 4.54297C34.3613 4.54297 34.9297 4.79492 35.3438 5.29883L35.4082 4.66016H36.6914V10.8066C36.6914 11.6387 36.4316 12.2949 35.9121 12.7754C35.3965 13.2559 34.6992 13.4961 33.8203 13.4961C33.3555 13.4961 32.9004 13.3984 32.4551 13.2031C32.0137 13.0117 31.6777 12.7598 31.4473 12.4473L32.1211 11.5918C32.5586 12.1113 33.0977 12.3711 33.7383 12.3711C34.2109 12.3711 34.584 12.2422 34.8574 11.9844C35.1309 11.7305 35.2676 11.3555 35.2676 10.8594V10.4316C34.8574 10.8887 34.3105 11.1172 33.627 11.1172C32.8848 11.1172 32.2773 10.8223 31.8047 10.2324C31.3359 9.64258 31.1016 8.82617 31.1016 7.7832ZM32.5195 7.90625C32.5195 8.54297 32.6484 9.04492 32.9062 9.41211C33.168 9.77539 33.5293 9.95703 33.9902 9.95703C34.5645 9.95703 34.9902 9.71094 35.2676 9.21875V6.42969C34.998 5.94922 34.5762 5.70898 34.002 5.70898C33.5332 5.70898 33.168 5.89453 32.9062 6.26562C32.6484 6.63672 32.5195 7.18359 32.5195 7.90625Z" transform="translate(0 101)" fill="black"/>
</g>
<circle id="Ellipse" cx="3.5" cy="3.5" r="3.5" transform="translate(16 62)" fill="#F4564A"/>
<line id="Line" y1="-0.5" x2="11" y2="-0.5" transform="translate(14 50)" stroke="black"/>
</svg>
