<svg width="28" height="113" viewBox="0 0 28 113" fill="none" xmlns="http://www.w3.org/2000/svg">
<rect width="15" height="96" rx="7.5" transform="translate(6)" fill="#DBDBDB"/>
<path d="M0 0H15V19.5C15 23.6421 11.6421 27 7.5 27C3.35786 27 0 23.6421 0 19.5V0Z" transform="translate(6 69)" fill="#F4564A"/>
<path d="M2.34961 9.81641H6.22266V11H0.867188V2.46875H2.34961V9.81641ZM10.0137 11.1172C9.11133 11.1172 8.37891 10.834 7.81641 10.2676C7.25781 9.69727 6.97852 8.93945 6.97852 7.99414V7.81836C6.97852 7.18555 7.09961 6.62109 7.3418 6.125C7.58789 5.625 7.93164 5.23633 8.37305 4.95898C8.81445 4.68164 9.30664 4.54297 9.84961 4.54297C10.7129 4.54297 11.3789 4.81836 11.8477 5.36914C12.3203 5.91992 12.5566 6.69922 12.5566 7.70703V8.28125H8.41406C8.45703 8.80469 8.63086 9.21875 8.93555 9.52344C9.24414 9.82812 9.63086 9.98047 10.0957 9.98047C10.748 9.98047 11.2793 9.7168 11.6895 9.18945L12.457 9.92188C12.2031 10.3008 11.8633 10.5957 11.4375 10.8066C11.0156 11.0137 10.541 11.1172 10.0137 11.1172ZM9.84375 5.68555C9.45313 5.68555 9.13672 5.82227 8.89453 6.0957C8.65625 6.36914 8.50391 6.75 8.4375 7.23828H11.1504V7.13281C11.1191 6.65625 10.9922 6.29687 10.7695 6.05469C10.5469 5.80859 10.2383 5.68555 9.84375 5.68555ZM15.8203 9.19531L17.1621 4.66016H18.6328L16.4355 11H15.1992L12.9844 4.66016H14.4609L15.8203 9.19531ZM22.2363 11.1172C21.334 11.1172 20.6016 10.834 20.0391 10.2676C19.4805 9.69727 19.2012 8.93945 19.2012 7.99414V7.81836C19.2012 7.18555 19.3223 6.62109 19.5645 6.125C19.8105 5.625 20.1543 5.23633 20.5957 4.95898C21.0371 4.68164 21.5293 4.54297 22.0723 4.54297C22.9355 4.54297 23.6016 4.81836 24.0703 5.36914C24.543 5.91992 24.7793 6.69922 24.7793 7.70703V8.28125H20.6367C20.6797 8.80469 20.8535 9.21875 21.1582 9.52344C21.4668 9.82812 21.8535 9.98047 22.3184 9.98047C22.9707 9.98047 23.502 9.7168 23.9121 9.18945L24.6797 9.92188C24.4258 10.3008 24.0859 10.5957 23.6602 10.8066C23.2383 11.0137 22.7637 11.1172 22.2363 11.1172ZM22.0664 5.68555C21.6758 5.68555 21.3594 5.82227 21.1172 6.0957C20.8789 6.36914 20.7266 6.75 20.6602 7.23828H23.373V7.13281C23.3418 6.65625 23.2148 6.29687 22.9922 6.05469C22.7695 5.80859 22.4609 5.68555 22.0664 5.68555ZM27.4043 11H25.9805V2H27.4043V11Z" transform="translate(0 101)" fill="black"/>
</svg>
