<svg width="21" height="21" viewBox="0 0 21 21" fill="none" xmlns="http://www.w3.org/2000/svg">
<path d="M15.015 13.2164H14.0675L13.7319 12.8928C15.0471 11.3606 15.7175 9.37837 15.6024 7.36237C15.4872 5.34636 14.5955 3.45338 13.1144 2.08085C11.6333 0.708322 9.678 -0.036984 7.65907 0.0014132C5.64015 0.0398104 3.71463 0.858924 2.28678 2.28678C0.858924 3.71463 0.0398104 5.64015 0.0014132 7.65907C-0.036984 9.678 0.708322 11.6333 2.08085 13.1144C3.45338 14.5955 5.34636 15.4872 7.36237 15.6024C9.37837 15.7175 11.3606 15.0471 12.8928 13.7319L13.2164 14.0675V15.015L19.2128 21L21 19.2128L15.015 13.2164ZM7.81883 13.2164C6.7514 13.2164 5.70795 12.8999 4.82041 12.3069C3.93288 11.7138 3.24113 10.8709 2.83264 9.88478C2.42416 8.8986 2.31728 7.81344 2.52552 6.76653C2.73377 5.71961 3.24778 4.75795 4.00257 4.00317C4.75735 3.24838 5.71901 2.73437 6.76593 2.52612C7.81284 2.31788 8.898 2.42476 9.88418 2.83324C10.8704 3.24173 11.7133 3.93348 12.3063 4.82101C12.8993 5.70855 13.2158 6.752 13.2158 7.81943C13.2168 8.52844 13.0778 9.23067 12.8069 9.8859C12.5361 10.5411 12.1386 11.1365 11.6372 11.6378C11.1359 12.1392 10.5405 12.5367 9.8853 12.8075C9.23007 13.0784 8.52784 13.2174 7.81883 13.2164Z" fill="white"/>
</svg>
