<svg width="36" height="36" viewBox="0 0 36 36" fill="none" xmlns="http://www.w3.org/2000/svg">
<circle cx="18" cy="18" r="18" fill="#6AB344"/>
<path d="M2.51613 15.2564V17H10.9032V15.2564H7.96774V11.3333H10.0645V10.8974H12.1613V12.2051H13V8.71795H12.1613V10.0256H10.0645V9.58974H7.96774V6.53846H10.0645V6.10256H12.1613V7.41026H13V3.92308H12.1613V5.23077L10.0645 5.24004V4.79487H7.96774V2.61538H7.12903V1.30769H9.22581V0H4.19355V1.30769H6.29032V2.61538H5.45161V4.79487H3.35484V5.24004H0.83871V3.92308H0V7.41026H0.83871V6.10256H3.35484V6.53846H5.45161V9.58974H3.35484V10.0442H0.83871V8.71795H0V12.2051H0.83871V10.8974H3.35484V11.3333H5.45161V15.2564H2.51613Z" transform="translate(11 10)" fill="white"/>
</svg>
